<svg width="29" height="30" viewBox="0 0 29 30" fill="none" xmlns="http://www.w3.org/2000/svg">
<path d="M23.2532 22.6667H9.05317C7.73317 22.6667 6.4665 22.1067 5.57317 21.1334C5.13006 20.6509 4.79124 20.0821 4.57788 19.4627C4.36452 18.8433 4.28122 18.1865 4.33317 17.5334L5.43984 4.25341C5.47984 3.84008 5.33317 3.44008 5.05317 3.13341C4.77317 2.82675 4.3865 2.66675 3.97317 2.66675H1.6665C1.11984 2.66675 0.666504 2.21341 0.666504 1.66675C0.666504 1.12008 1.11984 0.666748 1.6665 0.666748H3.9865C4.95984 0.666748 5.87984 1.08008 6.53317 1.78675C6.89317 2.18675 7.15984 2.65341 7.3065 3.17341H23.9598C25.3065 3.17341 26.5465 3.70675 27.4532 4.66675C28.3465 5.64008 28.7998 6.90675 28.6932 8.25341L27.9732 18.2534C27.8265 20.6934 25.6932 22.6667 23.2532 22.6667ZM7.37317 5.16008L6.33317 17.6934C6.2665 18.4667 6.51984 19.2001 7.03984 19.7734C7.55984 20.3467 8.27984 20.6534 9.05317 20.6534H23.2532C24.6398 20.6534 25.8932 19.4801 25.9998 18.0934L26.7198 8.09341C26.7515 7.71537 26.7037 7.33489 26.5796 6.97641C26.4554 6.61793 26.2577 6.28939 25.999 6.01189C25.7403 5.73438 25.4265 5.51406 25.0776 5.36506C24.7287 5.21607 24.3525 5.14171 23.9732 5.14675H7.37317V5.16008ZM20.6665 29.3334C19.1998 29.3334 17.9998 28.1334 17.9998 26.6667C17.9998 25.2001 19.1998 24.0001 20.6665 24.0001C22.1332 24.0001 23.3332 25.2001 23.3332 26.6667C23.3332 28.1334 22.1332 29.3334 20.6665 29.3334ZM20.6665 26.0001C20.2932 26.0001 19.9998 26.2934 19.9998 26.6667C19.9998 27.0401 20.2932 27.3334 20.6665 27.3334C21.0398 27.3334 21.3332 27.0401 21.3332 26.6667C21.3332 26.2934 21.0398 26.0001 20.6665 26.0001ZM9.99984 29.3334C8.53317 29.3334 7.33317 28.1334 7.33317 26.6667C7.33317 25.2001 8.53317 24.0001 9.99984 24.0001C11.4665 24.0001 12.6665 25.2001 12.6665 26.6667C12.6665 28.1334 11.4665 29.3334 9.99984 29.3334ZM9.99984 26.0001C9.6265 26.0001 9.33317 26.2934 9.33317 26.6667C9.33317 27.0401 9.6265 27.3334 9.99984 27.3334C10.3732 27.3334 10.6665 27.0401 10.6665 26.6667C10.6665 26.2934 10.3732 26.0001 9.99984 26.0001Z" fill="white"/>
</svg>
