<svg width="30" height="30" viewBox="0 0 30 30" fill="none" xmlns="http://www.w3.org/2000/svg">
<path d="M14.3332 28.0001C6.79984 28.0001 0.666504 21.8667 0.666504 14.3334C0.666504 6.80008 6.79984 0.666748 14.3332 0.666748C21.8665 0.666748 27.9998 6.80008 27.9998 14.3334C27.9998 21.8667 21.8665 28.0001 14.3332 28.0001ZM14.3332 2.66675C7.89317 2.66675 2.6665 7.90675 2.6665 14.3334C2.6665 20.7601 7.89317 26.0001 14.3332 26.0001C20.7732 26.0001 25.9998 20.7601 25.9998 14.3334C25.9998 7.90675 20.7732 2.66675 14.3332 2.66675ZM28.3332 29.3347C28.0798 29.3347 27.8265 29.2414 27.6265 29.0414L24.9598 26.3747C24.7739 26.1866 24.6696 25.9327 24.6696 25.6681C24.6696 25.4035 24.7739 25.1496 24.9598 24.9614C25.3465 24.5747 25.9865 24.5747 26.3732 24.9614L29.0398 27.6281C29.4265 28.0147 29.4265 28.6547 29.0398 29.0414C28.8398 29.2414 28.5865 29.3347 28.3332 29.3347Z" fill="white" fill-opacity="0.5"/>
</svg>
