<svg width="24" height="24" viewBox="0 0 24 24" fill="none" xmlns="http://www.w3.org/2000/svg">
<path d="M12.0002 12.75C8.83015 12.75 6.25016 10.17 6.25016 7C6.25016 3.83 8.83015 1.25 12.0002 1.25C15.1702 1.25 17.7502 3.83 17.7502 7C17.7502 10.17 15.1702 12.75 12.0002 12.75ZM12.0002 2.75C10.8738 2.75264 9.79433 3.20126 8.99787 3.99771C8.20141 4.79417 7.7528 5.87364 7.75015 7C7.7528 8.12636 8.20141 9.20583 8.99787 10.0023C9.79433 10.7987 10.8738 11.2474 12.0002 11.25C13.1265 11.2474 14.206 10.7987 15.0024 10.0023C15.7989 9.20583 16.2475 8.12636 16.2502 7C16.2475 5.87364 15.7989 4.79417 15.0024 3.99771C14.206 3.20126 13.1265 2.75264 12.0002 2.75ZM20.5902 22.75C20.1802 22.75 19.8402 22.41 19.8402 22C19.8402 18.55 16.3202 15.75 12.0002 15.75C7.68015 15.75 4.16016 18.55 4.16016 22C4.16016 22.41 3.82016 22.75 3.41016 22.75C3.00016 22.75 2.66016 22.41 2.66016 22C2.66016 17.73 6.85015 14.25 12.0002 14.25C17.1502 14.25 21.3402 17.73 21.3402 22C21.3402 22.41 21.0002 22.75 20.5902 22.75Z" fill="white"/>
</svg>
