<svg width="48" height="48" viewBox="0 0 48 48" fill="none" xmlns="http://www.w3.org/2000/svg">
<path d="M19.9802 45.4998C19.5802 45.4998 19.2602 45.4198 19.0202 45.3198C18.2202 45.0198 16.8602 44.0398 16.8602 40.9398V28.0398H12.1802C9.50016 28.0398 8.54016 26.7798 8.20016 26.0398C7.86016 25.2798 7.56016 23.7398 9.32016 21.7198L24.4602 4.51977C26.5002 2.19977 28.1602 2.35977 28.9602 2.65977C29.7602 2.95977 31.1202 3.93977 31.1202 7.03977V19.9398H35.8002C38.4802 19.9398 39.4402 21.1998 39.7802 21.9398C40.1202 22.6998 40.4202 24.2398 38.6602 26.2598L23.5202 43.4598C22.1002 45.0798 20.8602 45.4998 19.9802 45.4998ZM27.8602 5.47977C27.8002 5.55977 27.3802 5.75977 26.7202 6.51977L11.5802 23.7198C11.0202 24.3598 10.9402 24.7598 10.9402 24.8398C10.9802 24.8598 11.3402 25.0598 12.1802 25.0598H18.3602C19.1802 25.0598 19.8602 25.7398 19.8602 26.5598V40.9598C19.8602 41.9598 20.0402 42.3998 20.1202 42.5198C20.1802 42.4398 20.6002 42.2398 21.2602 41.4798L36.4002 24.2798C36.9602 23.6398 37.0402 23.2398 37.0402 23.1598C37.0002 23.1398 36.6402 22.9398 35.8002 22.9398H29.6202C28.8002 22.9398 28.1202 22.2598 28.1202 21.4398V7.03977C28.1402 6.03977 27.9402 5.61977 27.8602 5.47977Z" fill="white"/>
</svg>
