<svg width="48" height="48" viewBox="0 0 48 48" fill="none" xmlns="http://www.w3.org/2000/svg">
<path d="M39.0984 21.9938C38.1884 19.9456 36.8655 18.1073 35.2125 16.5938L33.8484 15.3422C33.8021 15.3009 33.7464 15.2716 33.6861 15.2568C33.6258 15.2421 33.5628 15.2423 33.5026 15.2576C33.4425 15.2729 33.387 15.3027 33.341 15.3444C33.2951 15.3861 33.2601 15.4385 33.2391 15.4969L32.6297 17.2454C32.25 18.3422 31.5516 19.4625 30.5625 20.5641C30.4969 20.6344 30.4219 20.6532 30.3703 20.6579C30.3188 20.6625 30.2391 20.6532 30.1687 20.5875C30.1031 20.5313 30.0703 20.4469 30.075 20.3625C30.2484 17.5407 29.4047 14.3579 27.5578 10.8938C26.0297 8.01567 23.9062 5.77035 21.2531 4.20473L19.3172 3.06567C19.0641 2.91567 18.7406 3.11254 18.7547 3.40785L18.8578 5.65785C18.9281 7.19535 18.75 8.55473 18.3281 9.68442C17.8125 11.0672 17.0719 12.3516 16.125 13.5047C15.466 14.3061 14.7192 15.031 13.8984 15.6657C11.9217 17.1852 10.3144 19.1322 9.19687 21.361C8.08207 23.6092 7.50136 26.0844 7.5 28.5938C7.5 30.8063 7.93594 32.9485 8.79844 34.9688C9.63125 36.9139 10.8331 38.6793 12.3375 40.1672C13.8563 41.6672 15.6188 42.8485 17.5828 43.6688C19.6172 44.5219 21.7734 44.9532 24 44.9532C26.2266 44.9532 28.3828 44.5219 30.4172 43.6735C32.3764 42.858 34.158 41.6686 35.6625 40.1719C37.1812 38.6719 38.3719 36.9188 39.2016 34.9735C40.0628 32.9587 40.5046 30.7896 40.5 28.5985C40.5 26.311 40.0312 24.0891 39.0984 21.9938Z" fill="white"/>
</svg>
