<svg width="32" height="32" viewBox="0 0 32 32" fill="none" xmlns="http://www.w3.org/2000/svg">
<path d="M15.9998 28.8694C15.5865 28.8694 15.1865 28.8161 14.8532 28.6961C9.75984 26.9494 1.6665 20.7494 1.6665 11.5894C1.6665 6.92273 5.43984 3.13606 10.0798 3.13606C12.3332 3.13606 14.4398 4.01606 15.9998 5.58939C16.7743 4.80788 17.6966 4.18843 18.7131 3.76721C19.7295 3.34599 20.8196 3.13144 21.9198 3.13606C26.5598 3.13606 30.3332 6.93606 30.3332 11.5894C30.3332 20.7627 22.2398 26.9494 17.1465 28.6961C16.8132 28.8161 16.4132 28.8694 15.9998 28.8694ZM10.0798 5.13606C6.5465 5.13606 3.6665 8.02939 3.6665 11.5894C3.6665 20.6961 12.4265 25.7627 15.5065 26.8161C15.7465 26.8961 16.2665 26.8961 16.5065 26.8161C19.5732 25.7627 28.3465 20.7094 28.3465 11.5894C28.3465 8.02939 25.4665 5.13606 21.9332 5.13606C19.9065 5.13606 18.0265 6.08273 16.8132 7.72273C16.4398 8.22939 15.5865 8.22939 15.2132 7.72273C14.6207 6.91883 13.8472 6.26575 12.9554 5.81637C12.0636 5.36698 11.0785 5.13392 10.0798 5.13606Z" fill="white"/>
</svg>
