<svg width="42" height="40" viewBox="0 0 42 40" fill="none" xmlns="http://www.w3.org/2000/svg">
<path d="M8.48021 28C8.70021 27.02 8.30021 25.62 7.60021 24.92L2.74021 20.06C1.22021 18.54 0.620206 16.92 1.06021 15.52C1.52021 14.12 2.94021 13.16 5.06021 12.8L11.3002 11.76C12.2002 11.6 13.3002 10.8 13.7202 9.98L17.1602 3.08C18.1602 1.1 19.5202 0 21.0002 0C22.4802 0 23.8402 1.1 24.8402 3.08L28.2802 9.98C28.5402 10.5 29.0802 11 29.6602 11.34L8.12021 32.88C7.84021 33.16 7.36021 32.9 7.44021 32.5L8.48021 28ZM34.4002 24.924C33.6802 25.644 33.2802 27.024 33.5202 28.004L34.9002 34.024C35.4802 36.524 35.1202 38.404 33.8802 39.304C33.3535 39.6721 32.7226 39.8614 32.0802 39.844C31.0602 39.844 29.8602 39.464 28.5402 38.684L22.6802 35.204C21.7602 34.664 20.2402 34.664 19.3202 35.204L13.4602 38.684C11.2402 39.984 9.34021 40.204 8.12021 39.304C7.66021 38.964 7.32021 38.504 7.10021 37.904L31.4202 13.584C32.3402 12.664 33.6402 12.244 34.9002 12.464L36.9202 12.804C39.0402 13.164 40.4602 14.124 40.9202 15.524C41.3602 16.924 40.7602 18.544 39.2402 20.064L34.4002 24.924Z" fill="white"/>
</svg>
