<svg width="36" height="36" viewBox="0 0 36 36" fill="none" xmlns="http://www.w3.org/2000/svg">
<path d="M14.355 28.2299C14.07 28.2299 13.785 28.1249 13.56 27.8999L4.45497 18.7949C4.24575 18.5832 4.12842 18.2976 4.12842 17.9999C4.12842 17.7023 4.24575 17.4166 4.45497 17.2049L13.56 8.09993C13.995 7.66493 14.715 7.66493 15.15 8.09993C15.585 8.53493 15.585 9.25493 15.15 9.68993L6.83997 17.9999L15.15 26.3099C15.585 26.7449 15.585 27.4649 15.15 27.8999C14.94 28.1249 14.64 28.2299 14.355 28.2299Z" fill="white"/>
<path d="M30.7499 19.125H5.50488C4.88988 19.125 4.37988 18.615 4.37988 18C4.37988 17.385 4.88988 16.875 5.50488 16.875H30.7499C31.3649 16.875 31.8749 17.385 31.8749 18C31.8749 18.615 31.3649 19.125 30.7499 19.125Z" fill="white"/>
</svg>
