<svg width="48" height="48" viewBox="0 0 48 48" fill="none" xmlns="http://www.w3.org/2000/svg">
<path d="M13.1 45.5C15.36 45.5 17.74 44.96 20.2 43.92C22.6 42.9 25.02 41.5 27.38 39.8C29.72 38.08 31.98 36.16 34.12 34.06C36.24 31.92 38.16 29.66 39.86 27.34C41.58 24.94 42.96 22.54 43.94 20.22C44.98 17.74 45.5 15.34 45.5 13.08C45.5 11.52 45.22 10.04 44.68 8.66C44.12 7.24 43.22 5.92 42 4.78C40.46 3.26 38.7 2.5 36.82 2.5C36.04 2.5 35.24 2.68 34.56 3C33.78 3.36 33.12 3.9 32.64 4.62L28 11.16C27.58 11.74 27.26 12.3 27.04 12.86C26.78 13.46 26.64 14.06 26.64 14.64C26.64 15.4 26.86 16.14 27.28 16.84C27.6476 17.4648 28.0984 18.0367 28.62 18.54L29.98 19.96C29.96 20.02 29.94 20.06 29.92 20.1C29.68 20.52 29.2 21.24 28.28 22.32C27.3 23.44 26.38 24.46 25.46 25.4C24.28 26.56 23.3 27.48 22.38 28.24C21.24 29.2 20.5 29.68 20.06 29.9L20.1 30L18.64 28.56C18.02 27.94 17.42 27.48 16.84 27.18C15.74 26.5 14.34 26.38 12.94 26.96C12.42 27.18 11.86 27.48 11.26 27.9L4.62 32.62C3.88 33.12 3.34 33.76 3.02 34.52C2.72 35.28 2.58 35.98 2.58 36.68C2.58 37.64 2.8 38.6 3.22 39.5C3.64 40.4 4.16 41.18 4.82 41.9C5.96 43.16 7.2 44.06 8.64 44.64C10.02 45.2 11.52 45.5 13.1 45.5ZM36.82 5.5C37.92 5.5 38.94 5.98 39.92 6.94C40.84 7.8 41.48 8.74 41.88 9.76C42.3 10.8 42.5 11.9 42.5 13.08C42.5 14.94 42.06 16.96 41.18 19.04C40.28 21.16 39.02 23.36 37.42 25.56C35.82 27.76 34 29.9 32 31.92C30 33.9 27.84 35.74 25.62 37.36C23.46 38.94 21.24 40.22 19.04 41.14C15.62 42.6 12.42 42.94 9.78 41.84C8.76 41.42 7.86 40.78 7.04 39.86C6.58 39.36 6.22 38.82 5.92 38.18C5.68 37.68 5.56 37.16 5.56 36.64C5.56 36.32 5.62 36 5.78 35.64C5.90786 35.3923 6.10165 35.1846 6.34 35.04L12.98 30.32C13.38 30.04 13.74 29.84 14.08 29.7C14.52 29.52 14.7 29.34 15.38 29.76C15.78 29.96 16.14 30.26 16.54 30.66L18.06 32.16C18.84 32.92 20.04 33.1 20.96 32.76L21.5 32.52C22.32 32.08 23.28 31.4 24.34 30.5C25.3 29.68 26.34 28.72 27.6 27.48C28.58 26.48 29.56 25.42 30.58 24.24C31.52 23.14 32.2 22.2 32.62 21.42L32.86 20.82C32.98 20.36 33.02 20.1 33.02 19.82C33.02 19.1 32.76 18.46 32.26 17.96L30.76 16.4C30.36 16 30.06 15.62 29.86 15.28C29.7 15.02 29.64 14.8 29.64 14.6C29.64 14.44 29.7 14.2 29.8 13.96C29.94 13.64 30.16 13.28 30.44 12.9L35.08 6.34C35.2672 6.07129 35.5227 5.85728 35.82 5.72C36.14 5.58 36.48 5.5 36.82 5.5ZM20.1 30.02L20.42 31.38L19.88 29.98C19.98 29.96 20.06 29.98 20.1 30.02ZM11 19.5C11.82 19.5 12.5 18.82 12.5 18C12.5 17.28 13.22 15.78 14.42 14.5C15.6 13.24 16.9 12.5 18 12.5C18.82 12.5 19.5 11.82 19.5 11C19.5 10.18 18.82 9.5 18 9.5C16.06 9.5 14.02 10.54 12.24 12.44C10.58 14.22 9.5 16.4 9.5 18C9.5 18.82 10.18 19.5 11 19.5ZM4 19.5C4.82 19.5 5.5 18.82 5.5 18C5.5 11.1 11.1 5.5 18 5.5C18.82 5.5 19.5 4.82 19.5 4C19.5 3.18 18.82 2.5 18 2.5C9.46 2.5 2.5 9.46 2.5 18C2.5 18.82 3.18 19.5 4 19.5Z" fill="white"/>
</svg>
