<svg width="48" height="48" viewBox="0 0 48 48" fill="none" xmlns="http://www.w3.org/2000/svg">
<path d="M23.9998 24C26.652 24 29.1955 22.9464 31.0709 21.0711C32.9463 19.1957 33.9998 16.6522 33.9998 14C33.9998 11.3478 32.9463 8.8043 31.0709 6.92893C29.1955 5.05357 26.652 4 23.9998 4C21.3477 4 18.8041 5.05357 16.9288 6.92893C15.0534 8.8043 13.9998 11.3478 13.9998 14C13.9998 16.6522 15.0534 19.1957 16.9288 21.0711C18.8041 22.9464 21.3477 24 23.9998 24ZM23.9998 29C13.9798 29 5.81982 35.72 5.81982 44C5.81982 44.56 6.25982 45 6.81982 45H41.1798C41.7398 45 42.1798 44.56 42.1798 44C42.1798 35.72 34.0198 29 23.9998 29Z" fill="white"/>
</svg>
