<svg width="40" height="40" viewBox="0 0 40 40" fill="none" xmlns="http://www.w3.org/2000/svg">
<path d="M28.9002 9.10016C28.5046 9.10016 28.1179 9.21746 27.789 9.43722C27.4601 9.65699 27.2038 9.96934 27.0524 10.3348C26.901 10.7002 26.8614 11.1024 26.9386 11.4903C27.0158 11.8783 27.2062 12.2347 27.4859 12.5144C27.7657 12.7941 28.122 12.9846 28.51 13.0617C28.8979 13.1389 29.3001 13.0993 29.6655 12.9479C30.031 12.7965 30.3433 12.5402 30.5631 12.2113C30.7829 11.8824 30.9002 11.4957 30.9002 11.1002C30.9002 10.5697 30.6894 10.061 30.3144 9.68595C29.9393 9.31088 29.4306 9.10016 28.9002 9.10016ZM36.5668 13.1335C36.5344 11.7507 36.2754 10.3825 35.8002 9.0835C35.3764 7.97205 34.7168 6.96563 33.8668 6.1335C33.0415 5.27921 32.0328 4.62379 30.9168 4.21683C29.6213 3.7271 28.2516 3.46218 26.8668 3.4335C25.1002 3.3335 24.5335 3.3335 20.0002 3.3335C15.4668 3.3335 14.9002 3.3335 13.1335 3.4335C11.7487 3.46218 10.3791 3.7271 9.0835 4.21683C7.96962 4.62791 6.96172 5.28276 6.1335 6.1335C5.27921 6.95879 4.62379 7.96756 4.21683 9.0835C3.7271 10.3791 3.46218 11.7487 3.4335 13.1335C3.3335 14.9002 3.3335 15.4668 3.3335 20.0002C3.3335 24.5335 3.3335 25.1002 3.4335 26.8668C3.46218 28.2516 3.7271 29.6213 4.21683 30.9168C4.62379 32.0328 5.27921 33.0415 6.1335 33.8668C6.96172 34.7176 7.96962 35.3724 9.0835 35.7835C10.3791 36.2732 11.7487 36.5381 13.1335 36.5668C14.9002 36.6668 15.4668 36.6668 20.0002 36.6668C24.5335 36.6668 25.1002 36.6668 26.8668 36.5668C28.2516 36.5381 29.6213 36.2732 30.9168 35.7835C32.0328 35.3765 33.0415 34.7211 33.8668 33.8668C34.7206 33.0378 35.3807 32.0305 35.8002 30.9168C36.2754 29.6178 36.5344 28.2497 36.5668 26.8668C36.5668 25.1002 36.6668 24.5335 36.6668 20.0002C36.6668 15.4668 36.6668 14.9002 36.5668 13.1335ZM33.5668 26.6668C33.5547 27.7248 33.3631 28.773 33.0002 29.7668C32.7341 30.4922 32.3066 31.1475 31.7502 31.6835C31.2096 32.2343 30.5555 32.6609 29.8335 32.9335C28.8397 33.2964 27.7914 33.488 26.7335 33.5002C25.0668 33.5835 24.4502 33.6002 20.0668 33.6002C15.6835 33.6002 15.0668 33.6002 13.4002 33.5002C12.3016 33.5207 11.2078 33.3516 10.1668 33.0002C9.47647 32.7136 8.85242 32.2881 8.3335 31.7502C7.78031 31.2147 7.35823 30.5588 7.10016 29.8335C6.69326 28.8254 6.46757 27.7534 6.4335 26.6668C6.4335 25.0002 6.3335 24.3835 6.3335 20.0002C6.3335 15.6168 6.3335 15.0002 6.4335 13.3335C6.44097 12.2519 6.63841 11.1801 7.01683 10.1668C7.31024 9.46335 7.7606 8.83626 8.3335 8.3335C8.83985 7.76044 9.46564 7.30532 10.1668 7.00016C11.1827 6.63357 12.2535 6.44196 13.3335 6.4335C15.0002 6.4335 15.6168 6.3335 20.0002 6.3335C24.3835 6.3335 25.0002 6.3335 26.6668 6.4335C27.7248 6.44563 28.773 6.63724 29.7668 7.00016C30.5242 7.28125 31.204 7.73824 31.7502 8.3335C32.2963 8.84546 32.7231 9.47138 33.0002 10.1668C33.3706 11.1817 33.5623 12.2531 33.5668 13.3335C33.6502 15.0002 33.6668 15.6168 33.6668 20.0002C33.6668 24.3835 33.6502 25.0002 33.5668 26.6668ZM20.0002 11.4502C18.3098 11.4535 16.6584 11.9577 15.2546 12.8992C13.8507 13.8407 12.7575 15.1772 12.1129 16.7398C11.4683 18.3023 11.3014 20.0209 11.6332 21.6784C11.9649 23.3358 12.7806 24.8577 13.977 26.0518C15.1734 27.2459 16.6968 28.0585 18.3549 28.3871C20.013 28.7156 21.7313 28.5453 23.2926 27.8977C24.8539 27.2501 26.1883 26.1542 27.127 24.7486C28.0658 23.3429 28.5668 21.6905 28.5668 20.0002C28.569 18.8753 28.3488 17.7612 27.9189 16.7218C27.489 15.6823 26.8578 14.7382 26.0616 13.9436C25.2655 13.149 24.3201 12.5196 23.2798 12.0917C22.2396 11.6638 21.125 11.4458 20.0002 11.4502ZM20.0002 25.5502C18.9025 25.5502 17.8294 25.2247 16.9167 24.6148C16.0041 24.005 15.2927 23.1382 14.8726 22.1241C14.4526 21.1099 14.3427 19.994 14.5568 18.9174C14.771 17.8408 15.2995 16.8519 16.0757 16.0757C16.8519 15.2995 17.8408 14.771 18.9174 14.5568C19.994 14.3427 21.1099 14.4526 22.1241 14.8726C23.1382 15.2927 24.005 16.0041 24.6148 16.9167C25.2247 17.8294 25.5502 18.9025 25.5502 20.0002C25.5502 20.729 25.4066 21.4507 25.1277 22.1241C24.8488 22.7974 24.44 23.4092 23.9246 23.9246C23.4092 24.44 22.7974 24.8488 22.1241 25.1277C21.4507 25.4066 20.729 25.5502 20.0002 25.5502Z" fill="white" fill-opacity="0.5"/>
</svg>
