<svg width="44" height="44" viewBox="0 0 44 44" fill="none" xmlns="http://www.w3.org/2000/svg">
<path d="M11.1 43.5C13.36 43.5 15.74 42.96 18.2 41.92C20.6 40.9 23.02 39.5 25.38 37.8C27.72 36.08 29.98 34.16 32.12 32.06C34.24 29.92 36.16 27.66 37.86 25.34C39.58 22.94 40.96 20.54 41.94 18.22C42.98 15.74 43.5 13.34 43.5 11.08C43.5 9.52 43.22 8.04 42.68 6.66C42.12 5.24 41.22 3.92 40 2.78C38.46 1.26 36.7 0.5 34.82 0.5C34.04 0.5 33.24 0.68 32.56 1C31.78 1.36 31.12 1.9 30.64 2.62L26 9.16C25.58 9.74 25.26 10.3 25.04 10.86C24.78 11.46 24.64 12.06 24.64 12.64C24.64 13.4 24.86 14.14 25.28 14.84C25.6476 15.4648 26.0984 16.0367 26.62 16.54L27.98 17.96C27.96 18.02 27.94 18.06 27.92 18.1C27.68 18.52 27.2 19.24 26.28 20.32C25.3 21.44 24.38 22.46 23.46 23.4C22.28 24.56 21.3 25.48 20.38 26.24C19.24 27.2 18.5 27.68 18.06 27.9L18.1 28L16.64 26.56C16.02 25.94 15.42 25.48 14.84 25.18C13.74 24.5 12.34 24.38 10.94 24.96C10.42 25.18 9.86 25.48 9.26 25.9L2.62 30.62C1.88 31.12 1.34 31.76 1.02 32.52C0.720001 33.28 0.580002 33.98 0.580002 34.68C0.580002 35.64 0.800003 36.6 1.22 37.5C1.64 38.4 2.16 39.18 2.82 39.9C3.96 41.16 5.2 42.06 6.64 42.64C8.02 43.2 9.52 43.5 11.1 43.5ZM34.82 3.5C35.92 3.5 36.94 3.98 37.92 4.94C38.84 5.8 39.48 6.74 39.88 7.76C40.3 8.8 40.5 9.9 40.5 11.08C40.5 12.94 40.06 14.96 39.18 17.04C38.28 19.16 37.02 21.36 35.42 23.56C33.82 25.76 32 27.9 30 29.92C28 31.9 25.84 33.74 23.62 35.36C21.46 36.94 19.24 38.22 17.04 39.14C13.62 40.6 10.42 40.94 7.78 39.84C6.76 39.42 5.86 38.78 5.04 37.86C4.58 37.36 4.22 36.82 3.92 36.18C3.68 35.68 3.56 35.16 3.56 34.64C3.56 34.32 3.62 34 3.78 33.64C3.90786 33.3923 4.10165 33.1846 4.34 33.04L10.98 28.32C11.38 28.04 11.74 27.84 12.08 27.7C12.52 27.52 12.7 27.34 13.38 27.76C13.78 27.96 14.14 28.26 14.54 28.66L16.06 30.16C16.84 30.92 18.04 31.1 18.96 30.76L19.5 30.52C20.32 30.08 21.28 29.4 22.34 28.5C23.3 27.68 24.34 26.72 25.6 25.48C26.58 24.48 27.56 23.42 28.58 22.24C29.52 21.14 30.2 20.2 30.62 19.42L30.86 18.82C30.98 18.36 31.02 18.1 31.02 17.82C31.02 17.1 30.76 16.46 30.26 15.96L28.76 14.4C28.36 14 28.06 13.62 27.86 13.28C27.7 13.02 27.64 12.8 27.64 12.6C27.64 12.44 27.7 12.2 27.8 11.96C27.94 11.64 28.16 11.28 28.44 10.9L33.08 4.34C33.2672 4.07129 33.5227 3.85728 33.82 3.72C34.14 3.58 34.48 3.5 34.82 3.5ZM18.1 28.02L18.42 29.38L17.88 27.98C17.98 27.96 18.06 27.98 18.1 28.02ZM9 17.5C9.82 17.5 10.5 16.82 10.5 16C10.5 15.28 11.22 13.78 12.42 12.5C13.6 11.24 14.9 10.5 16 10.5C16.82 10.5 17.5 9.82 17.5 9C17.5 8.18 16.82 7.5 16 7.5C14.06 7.5 12.02 8.54 10.24 10.44C8.58 12.22 7.5 14.4 7.5 16C7.5 16.82 8.18 17.5 9 17.5ZM2 17.5C2.82 17.5 3.5 16.82 3.5 16C3.5 9.1 9.1 3.5 16 3.5C16.82 3.5 17.5 2.82 17.5 2C17.5 1.18 16.82 0.5 16 0.5C7.46 0.5 0.5 7.46 0.5 16C0.5 16.82 1.18 17.5 2 17.5Z" fill="white"/>
</svg>
