<svg width="40" height="40" viewBox="0 0 40 40" fill="none" xmlns="http://www.w3.org/2000/svg">
<path d="M25.5835 9.25003C24.3171 9.24981 23.1011 9.74666 22.1972 10.6337C21.2934 11.5208 20.7737 12.7271 20.7502 13.9934L20.7035 16.6184C20.701 16.7594 20.6687 16.8984 20.6086 17.0261C20.5486 17.1538 20.4622 17.2673 20.3552 17.3593C20.2481 17.4512 20.1228 17.5194 19.9875 17.5595C19.8522 17.5996 19.71 17.6105 19.5702 17.5917L16.9668 17.2367C13.5452 16.77 10.2652 15.195 7.11682 12.5734C6.12182 18.09 8.06682 21.9117 12.7552 24.86L15.6668 26.69C15.8049 26.7769 15.9197 26.8962 16.0011 27.0376C16.0825 27.179 16.128 27.3382 16.1338 27.5012C16.1395 27.6643 16.1053 27.8263 16.0341 27.9731C15.9629 28.1199 15.8568 28.247 15.7252 28.3434L13.0718 30.2834C14.6502 30.3834 16.1485 30.3134 17.3918 30.0667C25.2552 28.4967 30.4835 22.58 30.4835 12.82C30.4835 12.0234 28.7952 9.25003 25.5835 9.25003ZM17.4168 13.9334C17.4459 12.3268 17.9483 10.7645 18.8611 9.44206C19.7739 8.11965 21.0565 7.09589 22.5483 6.49897C24.0402 5.90205 25.675 5.75849 27.2481 6.08627C28.8211 6.41405 30.2625 7.1986 31.3918 8.34169C32.5768 8.33336 33.5852 8.63336 35.8385 7.26503C35.2818 9.99836 35.0052 11.1867 33.8168 12.8184C33.8168 25.5534 25.9885 31.7484 18.0435 33.3334C12.5985 34.42 4.67682 32.635 2.41016 30.2634C3.56516 30.175 8.26516 29.67 10.9818 27.68C8.68182 26.1634 -0.464844 20.78 5.54682 6.31003C8.36849 9.60503 11.2302 11.8467 14.1302 13.0384C16.0585 13.83 16.5335 13.8134 17.4185 13.935L17.4168 13.9334Z" fill="white" fill-opacity="0.5"/>
</svg>
