<svg width="38" height="41" viewBox="0 0 38 41" fill="none" xmlns="http://www.w3.org/2000/svg">
<path d="M18.9998 20C21.652 20 24.1955 18.9464 26.0709 17.0711C27.9463 15.1957 28.9998 12.6522 28.9998 10C28.9998 7.34784 27.9463 4.8043 26.0709 2.92893C24.1955 1.05357 21.652 0 18.9998 0C16.3477 0 13.8041 1.05357 11.9288 2.92893C10.0534 4.8043 8.99982 7.34784 8.99982 10C8.99982 12.6522 10.0534 15.1957 11.9288 17.0711C13.8041 18.9464 16.3477 20 18.9998 20ZM18.9998 25C8.97982 25 0.819824 31.72 0.819824 40C0.819824 40.56 1.25982 41 1.81982 41H36.1798C36.7398 41 37.1798 40.56 37.1798 40C37.1798 31.72 29.0198 25 18.9998 25Z" fill="white"/>
</svg>
