<svg width="48" height="48" viewBox="0 0 48 48" fill="none" xmlns="http://www.w3.org/2000/svg">
<path d="M43.9999 21.9399V26.0599C43.9999 27.1599 43.1199 28.0599 41.9999 28.0999H38.0799C35.92 28.0999 33.9399 26.5199 33.7599 24.3599C33.6399 23.0999 34.1199 21.9199 34.9599 21.0999C35.6999 20.3399 36.7199 19.8999 37.8399 19.8999H41.9999C43.1199 19.9399 43.9999 20.8399 43.9999 21.9399Z" fill="white"/>
<path d="M40.94 31.1H38.08C34.28 31.1 31.08 28.24 30.76 24.6C30.58 22.52 31.34 20.44 32.86 18.96C34.14 17.64 35.92 16.9 37.84 16.9H40.94C41.52 16.9 42 16.42 41.94 15.84C41.5 10.98 38.28 7.66 33.5 7.1C33.02 7.02 32.52 7 32 7H14C13.44 7 12.9 7.04 12.38 7.12C7.28 7.76 4 11.56 4 17V31C4 36.52 8.48 41 14 41H32C37.6 41 41.46 37.5 41.94 32.16C41.9513 32.023 41.9336 31.8852 41.8881 31.7556C41.8427 31.6259 41.7704 31.5072 41.6761 31.4072C41.5818 31.3073 41.4676 31.2283 41.3407 31.1753C41.2139 31.1224 41.0774 31.0967 40.94 31.1ZM26 19.5H14C13.18 19.5 12.5 18.82 12.5 18C12.5 17.18 13.18 16.5 14 16.5H26C26.82 16.5 27.5 17.18 27.5 18C27.5 18.82 26.82 19.5 26 19.5Z" fill="white"/>
</svg>
